<svg width="30" height="30" viewBox="0 0 30 30" fill="none" xmlns="http://www.w3.org/2000/svg">
<path d="M5.00004 8.01749L0.946289 3.96499L2.71504 2.19624L6.76754 6.24999H25.82C26.0149 6.24998 26.207 6.29551 26.3811 6.38295C26.5552 6.47039 26.7065 6.59732 26.8228 6.75361C26.9392 6.9099 27.0174 7.09122 27.0512 7.2831C27.085 7.47498 27.0735 7.67211 27.0175 7.85874L24.0175 17.8587C23.9404 18.1163 23.7822 18.3422 23.5664 18.5028C23.3507 18.6633 23.089 18.75 22.82 18.75H7.50004V21.25H21.25V23.75H6.25004C5.91852 23.75 5.60058 23.6183 5.36616 23.3839C5.13174 23.1495 5.00004 22.8315 5.00004 22.5V8.01749ZM6.87504 28.75C6.37776 28.75 5.90084 28.5524 5.54921 28.2008C5.19758 27.8492 5.00004 27.3723 5.00004 26.875C5.00004 26.3777 5.19758 25.9008 5.54921 25.5492C5.90084 25.1975 6.37776 25 6.87504 25C7.37232 25 7.84923 25.1975 8.20086 25.5492C8.5525 25.9008 8.75004 26.3777 8.75004 26.875C8.75004 27.3723 8.5525 27.8492 8.20086 28.2008C7.84923 28.5524 7.37232 28.75 6.87504 28.75ZM21.875 28.75C21.3778 28.75 20.9008 28.5524 20.5492 28.2008C20.1976 27.8492 20 27.3723 20 26.875C20 26.3777 20.1976 25.9008 20.5492 25.5492C20.9008 25.1975 21.3778 25 21.875 25C22.3723 25 22.8492 25.1975 23.2009 25.5492C23.5525 25.9008 23.75 26.3777 23.75 26.875C23.75 27.3723 23.5525 27.8492 23.2009 28.2008C22.8492 28.5524 22.3723 28.75 21.875 28.75Z" fill="black"/>
</svg>
