<svg width="48" height="48" viewBox="0 0 48 48" fill="none" xmlns="http://www.w3.org/2000/svg">
<path d="M29.6398 8.52002C29.2426 9.23139 28.8887 9.96606 28.5798 10.72C25.5454 10.2401 22.4543 10.2401 19.4198 10.72C19.111 9.96606 18.757 9.23139 18.3598 8.52002C15.5014 9.00842 12.7226 9.88309 10.0998 11.12C5.40972 17.8886 3.28271 26.1059 4.09983 34.3C7.15631 36.5977 10.5868 38.3502 14.2398 39.48C15.0717 38.3812 15.814 37.2175 16.4598 36C15.268 35.5606 14.1224 35.0046 13.0398 34.34C13.3368 34.1425 13.6176 33.9218 13.8798 33.68C17.0368 35.2007 20.4958 35.9903 23.9998 35.9903C27.5039 35.9903 30.9629 35.2007 34.1198 33.68C34.3998 33.92 34.6798 34.14 34.9598 34.34C33.8714 34.9993 32.7269 35.5615 31.5398 36.02C32.1588 37.2651 32.8814 38.456 33.6998 39.58C37.3484 38.4541 40.7729 36.7012 43.8198 34.4C44.6566 26.2044 42.5278 17.9804 37.8198 11.22C35.2265 9.95749 32.4752 9.04936 29.6398 8.52002V8.52002ZM17.3598 29.62C16.359 29.5482 15.4249 29.0914 14.7537 28.3456C14.0824 27.5997 13.7262 26.6229 13.7598 25.62C13.7212 24.6159 14.0756 23.6362 14.7479 22.8892C15.4201 22.1423 16.3572 21.687 17.3598 21.62C18.3625 21.687 19.2996 22.1423 19.9718 22.8892C20.6441 23.6362 20.9985 24.6159 20.9598 25.62C20.9985 26.6242 20.6441 27.6039 19.9718 28.3508C19.2996 29.0977 18.3625 29.5531 17.3598 29.62V29.62ZM30.6398 29.62C29.639 29.5482 28.7049 29.0914 28.0337 28.3456C27.3624 27.5997 27.0062 26.6229 27.0398 25.62C27.0012 24.6159 27.3556 23.6362 28.0279 22.8892C28.7001 22.1423 29.6372 21.687 30.6398 21.62C31.6444 21.682 32.5845 22.1358 33.2577 22.8839C33.931 23.632 34.2837 24.6145 34.2398 25.62C34.2837 26.6255 33.931 27.608 33.2577 28.3561C32.5845 29.1042 31.6444 29.5581 30.6398 29.62V29.62Z" fill="white"/>
</svg>
