<svg width="30" height="30" viewBox="0 0 30 30" fill="none" xmlns="http://www.w3.org/2000/svg">
<g clip-path="url(#clip0_111_490)">
<path d="M25.3962 5.46225C23.4513 4.56946 21.3987 3.93281 19.2899 3.56825C19.2707 3.56468 19.2509 3.56724 19.2333 3.57556C19.2157 3.58389 19.2011 3.59756 19.1917 3.61463C18.928 4.08375 18.6359 4.69563 18.4314 5.1765C16.1255 4.83125 13.8314 4.83125 11.5729 5.1765C11.3684 4.68488 11.0656 4.08375 10.8007 3.61463C10.7909 3.59795 10.7763 3.58461 10.7588 3.57636C10.7413 3.56811 10.7217 3.56533 10.7026 3.56838C8.59359 3.93209 6.54086 4.56868 4.59611 5.46213C4.57948 5.46924 4.56546 5.48133 4.55599 5.49675C0.66674 11.3073 -0.39876 16.9749 0.12399 22.5723C0.125468 22.586 0.129681 22.5992 0.13638 22.6113C0.143079 22.6233 0.152128 22.6339 0.16299 22.6424C2.72899 24.5269 5.21461 25.6709 7.65411 26.4291C7.67308 26.4348 7.69333 26.4345 7.71214 26.4284C7.73095 26.4222 7.74743 26.4104 7.75936 26.3946C8.33636 25.6066 8.85074 24.7756 9.29186 23.9019C9.29793 23.8899 9.30139 23.8768 9.30202 23.8634C9.30265 23.85 9.30044 23.8366 9.29553 23.8241C9.29061 23.8117 9.28311 23.8004 9.27352 23.791C9.26393 23.7816 9.25246 23.7744 9.23986 23.7698C8.42386 23.4603 7.64699 23.0829 6.89961 22.6544C6.88599 22.6464 6.87454 22.6351 6.86628 22.6217C6.85803 22.6082 6.85321 22.5929 6.85228 22.5771C6.85134 22.5613 6.8543 22.5456 6.8609 22.5312C6.8675 22.5168 6.87753 22.5043 6.89011 22.4948C7.04736 22.3769 7.20474 22.2544 7.35486 22.1305C7.36821 22.1195 7.38436 22.1124 7.4015 22.1101C7.41863 22.1078 7.43608 22.1103 7.45186 22.1174C12.3616 24.359 17.6769 24.359 22.5286 22.1174C22.5444 22.1099 22.562 22.107 22.5794 22.1091C22.5968 22.1112 22.6132 22.1182 22.6267 22.1293C22.777 22.253 22.9342 22.3769 23.0927 22.4948C23.1054 22.5042 23.1155 22.5166 23.1221 22.5309C23.1288 22.5452 23.1319 22.5609 23.1311 22.5767C23.1303 22.5925 23.1256 22.6078 23.1175 22.6213C23.1093 22.6348 23.098 22.6461 23.0845 22.6543C22.3368 23.0909 21.5536 23.4637 20.7432 23.7685C20.7307 23.7733 20.7192 23.7807 20.7097 23.7903C20.7002 23.7998 20.6928 23.8112 20.688 23.8238C20.6832 23.8364 20.6811 23.8499 20.6818 23.8633C20.6826 23.8768 20.6862 23.8899 20.6924 23.9019C21.1429 24.7744 21.6572 25.6054 22.2236 26.3934C22.2352 26.4096 22.2516 26.4218 22.2705 26.4283C22.2894 26.4347 22.3098 26.435 22.3289 26.4291C24.7801 25.6708 27.2657 24.5268 29.8317 22.6424C29.8428 22.6343 29.852 22.624 29.8587 22.6121C29.8655 22.6002 29.8696 22.587 29.8709 22.5734C30.4964 16.1021 28.8231 10.481 25.4352 5.49788C25.4269 5.48169 25.4131 5.46901 25.3962 5.46213V5.46225ZM10.025 19.164C8.54687 19.164 7.32886 17.8069 7.32886 16.1403C7.32886 14.4738 8.52324 13.1166 10.0251 13.1166C11.5386 13.1166 12.7447 14.4856 12.7211 16.1404C12.7211 17.8069 11.5267 19.164 10.025 19.164V19.164ZM19.9935 19.164C18.5154 19.164 17.2974 17.8069 17.2974 16.1403C17.2974 14.4738 18.4916 13.1166 19.9935 13.1166C21.507 13.1166 22.7131 14.4856 22.6895 16.1404C22.6895 17.8069 21.507 19.164 19.9935 19.164V19.164Z" fill="white"/>
</g>
<defs>
<clipPath id="clip0_111_490">
<rect width="30" height="30" fill="white"/>
</clipPath>
</defs>
</svg>
