<svg width="20" height="20" viewBox="0 0 20 20" fill="none" xmlns="http://www.w3.org/2000/svg">
<path d="M18.3333 6.03331C18.3339 5.92363 18.3129 5.81492 18.2715 5.71338C18.23 5.61185 18.1689 5.51951 18.0916 5.44164L14.5583 1.90831C14.4804 1.83107 14.3881 1.76997 14.2866 1.7285C14.185 1.68703 14.0763 1.66601 13.9666 1.66664C13.857 1.66601 13.7482 1.68703 13.6467 1.7285C13.5452 1.76997 13.4528 1.83107 13.375 1.90831L11.0166 4.26664L1.90831 13.375C1.83107 13.4528 1.76997 13.5452 1.7285 13.6467C1.68703 13.7482 1.66601 13.857 1.66664 13.9666V17.5C1.66664 17.721 1.75444 17.933 1.91072 18.0892C2.067 18.2455 2.27896 18.3333 2.49997 18.3333H6.03331C6.14991 18.3397 6.26655 18.3214 6.37566 18.2798C6.48476 18.2381 6.5839 18.174 6.66664 18.0916L15.725 8.98331L18.0916 6.66664C18.1677 6.58587 18.2297 6.49292 18.275 6.39164C18.283 6.32522 18.283 6.25806 18.275 6.19164C18.2789 6.15285 18.2789 6.11376 18.275 6.07497L18.3333 6.03331ZM5.69164 16.6666H3.33331V14.3083L11.6083 6.03331L13.9666 8.39164L5.69164 16.6666ZM15.1416 7.21664L12.7833 4.85831L13.9666 3.68331L16.3166 6.03331L15.1416 7.21664Z" fill="black"/>
</svg>
