<svg width="49" height="49" viewBox="0 0 49 49" fill="none" xmlns="http://www.w3.org/2000/svg">
<g clip-path="url(#clip0_1007_196)">
<path d="M6.99714 15.5434C8.66116 12.2299 11.2139 9.44446 14.37 7.49838C17.5261 5.55229 21.1613 4.52227 24.8691 4.52344C30.2591 4.52344 34.7871 6.50344 38.2491 9.73344L32.5151 15.4694C30.4411 13.4874 27.8051 12.4774 24.8691 12.4774C19.6591 12.4774 15.2491 15.9974 13.6791 20.7234C13.2791 21.9234 13.0511 23.2034 13.0511 24.5234C13.0511 25.8434 13.2791 27.1234 13.6791 28.3234C15.2511 33.0514 19.6591 36.5694 24.8691 36.5694C27.5591 36.5694 29.8491 35.8594 31.6411 34.6594C32.68 33.9754 33.5694 33.0879 34.2555 32.0504C34.9417 31.013 35.4103 29.8471 35.6331 28.6234H24.8691V20.8874H43.7051C43.9411 22.1954 44.0691 23.5594 44.0691 24.9774C44.0691 31.0694 41.8891 36.1974 38.1051 39.6774C34.7971 42.7334 30.2691 44.5234 24.8691 44.5234C22.2424 44.5245 19.6412 44.0079 17.2142 43.0032C14.7872 41.9984 12.582 40.5253 10.7247 38.6679C8.86728 36.8105 7.39413 34.6053 6.38941 32.1784C5.38469 29.7514 4.86809 27.1502 4.86914 24.5234C4.86914 21.2954 5.64114 18.2434 6.99714 15.5434Z" fill="white"/>
</g>
<defs>
<clipPath id="clip0_1007_196">
<rect width="48" height="48" fill="white" transform="translate(0.869141 0.523438)"/>
</clipPath>
</defs>
</svg>
