<svg width="21" height="21" viewBox="0 0 21 21" fill="none" xmlns="http://www.w3.org/2000/svg">
<path d="M11.4281 0.384418C10.9156 -0.128139 10.0845 -0.128139 9.57193 0.384418L0.384419 9.57192C-0.12814 10.0845 -0.12814 10.9155 0.384419 11.4281C0.89699 11.9406 1.72801 11.9406 2.24059 11.4281L2.625 11.0436V19.6875C2.625 20.4124 3.21264 21 3.93751 21H6.56251C7.28738 21 7.87501 20.4124 7.87501 19.6875V17.0625C7.87501 16.3376 8.46265 15.75 9.18751 15.75H11.8125C12.5374 15.75 13.125 16.3376 13.125 17.0625V19.6875C13.125 20.4124 13.7126 21 14.4375 21H17.0625C17.7874 21 18.375 20.4124 18.375 19.6875V11.0436L18.7595 11.4281C19.272 11.9406 20.1031 11.9406 20.6156 11.4281C21.1281 10.9155 21.1281 10.0845 20.6156 9.57192L11.4281 0.384418Z" fill="#00FFB2"/>
</svg>
