<svg width="253" height="282" viewBox="0 0 253 282" fill="none" xmlns="http://www.w3.org/2000/svg">
<path d="M252.731 155.133C252.731 224.924 196.155 281.5 126.366 281.5C56.5757 281.5 0 224.917 0 155.133C0 98.8378 36.8108 51.1406 87.6758 34.8002C85.969 52.459 77.4762 68.8975 63.7365 80.3766C40.2864 99.9748 26.1623 130.359 28.9928 163.901C32.9616 210.941 70.2858 248.503 117.306 252.739C175.358 257.965 224.097 212.382 224.097 155.415C224.097 125.343 210.516 98.4427 189.153 80.5137C175.447 69.0194 166.794 52.6079 165.055 34.8043C215.92 51.1446 252.731 98.8418 252.731 155.133Z" fill="white"/>
<path d="M135.788 0.799684L109.355 40.0861C109.174 40.3545 109.07 40.6669 109.053 40.9899C109.037 41.3129 109.108 41.6343 109.26 41.9199C109.412 42.2055 109.638 42.4444 109.915 42.6112C110.192 42.778 110.51 42.8664 110.833 42.8669H122.065C122.582 42.867 123.092 42.9902 123.553 43.2264C124.013 43.4625 124.411 43.8048 124.713 44.225C125.015 44.6452 125.212 45.1312 125.289 45.6428C125.367 46.1545 125.321 46.6772 125.156 47.1677L117.713 69.4055C117.057 71.3651 119.702 72.6862 120.874 70.9847L147.733 32.0087C147.917 31.7402 148.025 31.4261 148.044 31.1007C148.063 30.7752 147.993 30.4508 147.84 30.1626C147.688 29.8743 147.46 29.6334 147.18 29.4658C146.9 29.2982 146.58 29.2103 146.254 29.2118L134.811 29.3059C134.295 29.3103 133.785 29.1921 133.324 28.9611C132.862 28.73 132.462 28.3927 132.157 27.9769C131.851 27.5611 131.648 27.0787 131.565 26.5693C131.482 26.0599 131.522 25.5381 131.68 25.0468L138.978 2.34394C139.6 0.374979 136.942 -0.91526 135.788 0.799684Z" fill="#00FFB2"/>
<path d="M162.416 150.228C161.771 150.807 161.019 151.253 160.201 151.541C159.384 151.828 158.518 151.952 157.653 151.904C156.788 151.856 155.941 151.639 155.16 151.263C154.379 150.887 153.68 150.361 153.103 149.715L141.007 136.227C140.885 136.09 140.725 135.994 140.548 135.951C140.37 135.908 140.184 135.92 140.013 135.986C139.842 136.051 139.696 136.166 139.592 136.317C139.489 136.468 139.433 136.646 139.433 136.829V136.829C139.434 137.88 139.311 138.928 139.065 139.951C138.001 144.374 138.112 148.999 139.536 153.32L147.155 176.436C147.537 177.591 147.668 178.814 147.54 180.023C147.539 180.041 147.539 180.059 147.54 180.077L145.963 225.101C145.898 226.955 145.1 228.707 143.744 229.972C142.388 231.237 140.585 231.912 138.731 231.847C136.878 231.783 135.126 230.985 133.86 229.629C132.595 228.273 131.921 226.47 131.985 224.616L133.354 185.346C133.482 181.699 132.964 178.059 131.822 174.594L129.144 166.461C128.833 165.52 127.456 165.694 127.387 166.68L126.536 178.944C126.445 180.246 126.06 181.51 125.409 182.642C124.569 184.123 123.804 185.645 123.117 187.203L106.946 223.152C106.185 224.843 104.783 226.162 103.05 226.819C101.316 227.476 99.3921 227.418 97.7015 226.657C96.0108 225.896 94.6918 224.494 94.0346 222.76C93.3774 221.027 93.4358 219.103 94.197 217.412L111.423 179.108C112.268 177.229 112.773 175.216 112.916 173.161L114.404 151.822C114.673 147.945 114.364 144.038 113.353 140.285C113.05 139.158 112.897 137.996 112.899 136.829V112.807C112.899 112.617 112.838 112.431 112.726 112.277C112.614 112.122 112.456 112.008 112.274 111.949C112.093 111.89 111.898 111.891 111.716 111.95C111.535 112.009 111.377 112.125 111.266 112.279L108.99 115.423C108.04 116.737 107.384 118.24 107.067 119.83L101.187 149.367C100.842 151.079 99.8314 152.585 98.3774 153.553C96.9235 154.522 95.1448 154.874 93.4314 154.533C91.7181 154.192 90.21 153.185 89.2378 151.734C88.2657 150.282 87.9089 148.505 88.2458 146.79L94.8395 113.685C94.9455 113.143 95.1212 112.616 95.3623 112.119L95.5329 111.752C95.7179 111.335 95.9458 110.939 96.213 110.57L114.088 85.8816C114.12 85.8367 114.148 85.789 114.172 85.7392C115.456 83.0115 117.63 80.8026 120.338 79.4764C123.045 78.1501 126.123 77.7856 129.066 78.4429C132.008 79.1002 134.638 80.7401 136.524 83.0925C138.41 85.4448 139.438 88.3692 139.439 91.384V113.274C139.439 114.192 139.779 115.078 140.393 115.761L140.402 115.771L162.931 140.904C163.51 141.549 163.956 142.303 164.244 143.121C164.532 143.94 164.655 144.807 164.607 145.673C164.56 146.539 164.341 147.387 163.965 148.169C163.589 148.951 163.063 149.65 162.416 150.228V150.228Z" fill="white"/>
</svg>
