<svg width="20" height="20" viewBox="0 0 20 20" fill="none" xmlns="http://www.w3.org/2000/svg">
<path d="M9.99998 1.66669C8.23187 1.66669 6.53618 2.36907 5.28593 3.61931C4.03569 4.86955 3.33331 6.56524 3.33331 8.33335C3.33331 12.8334 9.20831 17.9167 9.45831 18.1334C9.60926 18.2625 9.80135 18.3334 9.99998 18.3334C10.1986 18.3334 10.3907 18.2625 10.5416 18.1334C10.8333 17.9167 16.6666 12.8334 16.6666 8.33335C16.6666 6.56524 15.9643 4.86955 14.714 3.61931C13.4638 2.36907 11.7681 1.66669 9.99998 1.66669ZM9.99998 16.375C8.22498 14.7084 4.99998 11.1167 4.99998 8.33335C4.99998 7.00727 5.52676 5.7355 6.46445 4.79782C7.40213 3.86014 8.6739 3.33335 9.99998 3.33335C11.3261 3.33335 12.5978 3.86014 13.5355 4.79782C14.4732 5.7355 15 7.00727 15 8.33335C15 11.1167 11.775 14.7167 9.99998 16.375ZM9.99998 5.00002C9.34071 5.00002 8.69624 5.19552 8.14808 5.56179C7.59992 5.92806 7.17267 6.44866 6.92038 7.05774C6.66809 7.66683 6.60208 8.33705 6.7307 8.98365C6.85931 9.63026 7.17678 10.2242 7.64296 10.6904C8.10913 11.1566 8.70308 11.474 9.34968 11.6026C9.99628 11.7313 10.6665 11.6652 11.2756 11.413C11.8847 11.1607 12.4053 10.7334 12.7715 10.1853C13.1378 9.63709 13.3333 8.99263 13.3333 8.33335C13.3333 7.4493 12.9821 6.60145 12.357 5.97633C11.7319 5.35121 10.884 5.00002 9.99998 5.00002ZM9.99998 10C9.67034 10 9.34811 9.90227 9.07403 9.71914C8.79995 9.536 8.58633 9.2757 8.46018 8.97116C8.33403 8.66662 8.30103 8.33151 8.36534 8.0082C8.42965 7.6849 8.58838 7.38793 8.82147 7.15484C9.05456 6.92176 9.35153 6.76302 9.67483 6.69871C9.99813 6.6344 10.3332 6.66741 10.6378 6.79355C10.9423 6.9197 11.2026 7.13332 11.3858 7.4074C11.5689 7.68149 11.6666 8.00372 11.6666 8.33335C11.6666 8.77538 11.4911 9.1993 11.1785 9.51187C10.8659 9.82443 10.442 10 9.99998 10Z" fill="black"/>
</svg>
