<svg width="425" height="453" viewBox="0 0 425 453" fill="none" xmlns="http://www.w3.org/2000/svg">
<path d="M338.731 155.133C338.731 224.924 282.155 281.5 212.366 281.5C142.576 281.5 86 224.917 86 155.133C86 98.8378 122.811 51.1406 173.676 34.8002C171.969 52.459 163.476 68.8975 149.737 80.3766C126.286 99.9748 112.162 130.359 114.993 163.901C118.962 210.941 156.286 248.503 203.306 252.739C261.358 257.965 310.097 212.382 310.097 155.415C310.097 125.343 296.516 98.4427 275.153 80.5137C261.447 69.0194 252.794 52.6079 251.055 34.8043C301.92 51.1446 338.731 98.8418 338.731 155.133Z" fill="white"/>
<path d="M221.788 0.799684L195.355 40.0861C195.174 40.3545 195.07 40.6669 195.053 40.9899C195.037 41.3129 195.108 41.6343 195.26 41.9199C195.412 42.2055 195.638 42.4444 195.915 42.6112C196.192 42.778 196.51 42.8664 196.833 42.8669H208.065C208.582 42.867 209.092 42.9902 209.553 43.2264C210.013 43.4625 210.411 43.8048 210.713 44.225C211.015 44.6452 211.212 45.1312 211.289 45.6428C211.367 46.1545 211.321 46.6772 211.156 47.1677L203.713 69.4055C203.057 71.3651 205.702 72.6862 206.874 70.9847L233.733 32.0087C233.917 31.7402 234.025 31.4261 234.044 31.1007C234.063 30.7752 233.993 30.4508 233.84 30.1626C233.688 29.8743 233.46 29.6334 233.18 29.4658C232.9 29.2982 232.58 29.2103 232.254 29.2118L220.811 29.3059C220.295 29.3103 219.785 29.1921 219.324 28.9611C218.862 28.73 218.462 28.3927 218.157 27.9769C217.851 27.5611 217.648 27.0787 217.565 26.5693C217.482 26.0599 217.522 25.5381 217.68 25.0468L224.978 2.34394C225.6 0.374979 222.942 -0.91526 221.788 0.799684Z" fill="#00FFB2"/>
<path d="M248.416 150.228C247.771 150.807 247.019 151.253 246.201 151.541C245.384 151.828 244.518 151.952 243.653 151.904C242.788 151.856 241.941 151.639 241.16 151.263C240.379 150.887 239.68 150.361 239.103 149.715L227.007 136.227C226.885 136.09 226.725 135.994 226.548 135.951C226.37 135.908 226.184 135.92 226.013 135.986C225.842 136.051 225.696 136.166 225.592 136.317C225.489 136.468 225.433 136.646 225.433 136.829V136.829C225.434 137.88 225.311 138.928 225.065 139.951C224.001 144.374 224.112 148.999 225.536 153.32L233.155 176.436C233.537 177.591 233.668 178.814 233.54 180.023C233.539 180.041 233.539 180.059 233.54 180.077L231.963 225.101C231.898 226.955 231.1 228.707 229.744 229.972C228.388 231.237 226.585 231.912 224.731 231.847C222.878 231.783 221.126 230.985 219.86 229.629C218.595 228.273 217.921 226.47 217.985 224.616L219.354 185.346C219.482 181.699 218.964 178.059 217.822 174.594L215.144 166.461C214.833 165.52 213.456 165.694 213.387 166.68L212.536 178.944C212.445 180.246 212.06 181.51 211.409 182.642C210.569 184.123 209.804 185.645 209.117 187.203L192.946 223.152C192.185 224.843 190.783 226.162 189.05 226.819C187.316 227.476 185.392 227.418 183.701 226.657C182.011 225.896 180.692 224.494 180.035 222.76C179.377 221.027 179.436 219.103 180.197 217.412L197.423 179.108C198.268 177.229 198.773 175.216 198.916 173.161L200.404 151.822C200.673 147.945 200.364 144.038 199.353 140.285C199.05 139.158 198.897 137.996 198.899 136.829V112.807C198.899 112.617 198.838 112.431 198.726 112.277C198.614 112.122 198.456 112.008 198.274 111.949C198.093 111.89 197.898 111.891 197.716 111.95C197.535 112.009 197.377 112.125 197.266 112.279L194.99 115.423C194.04 116.737 193.384 118.24 193.067 119.83L187.187 149.367C186.842 151.079 185.831 152.585 184.377 153.553C182.924 154.522 181.145 154.874 179.431 154.533C177.718 154.192 176.21 153.185 175.238 151.734C174.266 150.282 173.909 148.505 174.246 146.79L180.839 113.685C180.945 113.143 181.121 112.616 181.362 112.119L181.533 111.752C181.718 111.335 181.946 110.939 182.213 110.57L200.088 85.8816C200.12 85.8367 200.148 85.789 200.172 85.7392C201.456 83.0115 203.63 80.8026 206.338 79.4764C209.045 78.1501 212.123 77.7856 215.066 78.4429C218.008 79.1002 220.638 80.7401 222.524 83.0925C224.41 85.4448 225.438 88.3692 225.439 91.384V113.274C225.439 114.192 225.779 115.078 226.393 115.761L226.402 115.771L248.931 140.904C249.51 141.549 249.956 142.303 250.244 143.121C250.532 143.94 250.655 144.807 250.607 145.673C250.56 146.539 250.341 147.387 249.965 148.169C249.589 148.951 249.063 149.65 248.416 150.228V150.228Z" fill="white"/>
<path d="M36.096 427V414.968H20.48C17.536 414.968 15.488 412.92 15.488 409.976V391.8C15.488 388.984 17.536 386.808 20.48 386.808H33.408V375.032H20.48C17.536 375.032 15.488 372.856 15.488 369.912V353.016C15.488 350.2 17.536 348.152 20.608 348.152H36.096V336.12H19.712C9.472 336.12 2.304 343.8 2.304 352.504V369.016C2.304 374.008 3.968 378.488 8.448 380.664V381.048C3.968 383.992 2.304 387.832 2.304 392.824V410.616C2.304 419.32 9.472 427 19.712 427H36.096ZM82.02 427V395C82.02 392.696 83.812 390.904 86.116 390.904C88.42 390.904 90.34 392.696 90.34 395V427H103.396V395.256C103.396 390.008 100.836 385.144 96.612 382.072C100.836 379.128 103.396 374.264 103.396 369.016V336.12H90.34V369.272C90.34 371.704 88.42 373.496 86.116 373.496C83.812 373.496 82.02 371.704 82.02 369.272V336.12H68.836V369.016C68.836 374.264 71.268 379.128 75.492 382.072C71.268 385.144 68.836 390.008 68.836 395.256V427H82.02ZM154.011 428.792C164.251 428.792 171.291 421.112 171.291 412.408V350.712C171.291 342.008 164.251 334.328 154.011 334.328C143.643 334.328 136.731 342.008 136.731 350.712V412.408C136.731 421.112 143.643 428.792 154.011 428.792ZM154.139 416.76C151.835 416.76 150.043 414.968 150.043 412.664V350.328C150.043 348.152 151.835 346.36 154.139 346.36C156.443 346.36 158.235 348.152 158.235 350.328V412.664C158.235 414.968 156.443 416.76 154.139 416.76ZM221.906 428.792C232.146 428.792 239.186 421.112 239.186 412.408V336.12H226.13V412.664C226.13 414.968 224.21 416.76 221.906 416.76C219.602 416.76 217.81 414.968 217.81 412.664V336.12H204.626V412.408C204.626 421.112 211.538 428.792 221.906 428.792ZM289.417 428.792C299.657 428.792 306.569 421.112 306.569 412.408V398.456C306.569 391.928 304.649 387.448 300.169 382.584L287.497 369.144C285.833 367.48 285.193 365.688 285.193 363.384V350.328C285.193 348.152 286.985 346.36 289.289 346.36C291.593 346.36 293.385 348.152 293.385 350.328V367.608H306.569V350.712C306.569 342.008 299.529 334.328 289.161 334.328C278.921 334.328 272.009 342.008 272.009 350.712V363.128C272.009 369.656 273.929 374.264 278.409 378.872L291.081 392.312C292.617 393.976 293.385 395.768 293.385 398.072V412.792C293.385 414.968 291.593 416.76 289.289 416.76C286.985 416.76 285.193 414.968 285.193 412.792V393.592H272.009V412.408C272.009 421.112 279.177 428.792 289.417 428.792ZM352.99 427V336.12H339.934V427H352.99ZM400.248 427V387.192H408.44V427H421.496V350.712C421.496 342.008 414.456 334.328 404.216 334.328C393.848 334.328 386.936 342.008 386.936 350.712V427H400.248ZM400.248 350.328C400.248 348.152 402.04 346.36 404.344 346.36C406.648 346.36 408.44 348.152 408.44 350.328V375.288H400.248V350.328Z" fill="white"/>
</svg>
