<svg width="212" height="236" viewBox="0 0 212 236" fill="none" xmlns="http://www.w3.org/2000/svg">
<path d="M211.305 129.984C211.305 188.143 164.158 235.29 106 235.29C47.8417 235.29 0.695312 188.138 0.695312 129.984C0.695312 83.0717 31.371 43.324 73.7585 29.707C72.3361 44.4227 65.2588 58.1214 53.8091 67.6874C34.2673 84.0192 22.4972 109.339 24.8559 137.291C28.1633 176.491 59.2668 207.793 98.45 211.323C146.827 215.677 187.443 177.692 187.443 130.219C187.443 105.159 176.125 82.7424 158.323 67.8016C146.901 58.223 139.691 44.5467 138.241 29.7104C180.629 43.3274 211.305 83.075 211.305 129.984Z" fill="#141414"/>
<path d="M113.852 1.37325L91.8241 34.112C91.6737 34.3356 91.5869 34.596 91.573 34.8651C91.5591 35.1343 91.6186 35.4021 91.7451 35.6401C91.8716 35.8781 92.0605 36.0772 92.2914 36.2162C92.5223 36.3552 92.7866 36.4288 93.0561 36.4293H102.416C102.847 36.4294 103.272 36.5321 103.656 36.7288C104.04 36.9256 104.371 37.2109 104.623 37.561C104.874 37.9112 105.039 38.3162 105.103 38.7426C105.167 39.1689 105.129 39.6045 104.992 40.0133L98.7894 58.5448C98.2428 60.1777 100.447 61.2787 101.424 59.8608L123.806 27.3808C123.96 27.157 124.05 26.8953 124.065 26.6241C124.081 26.3529 124.023 26.0825 123.896 25.8423C123.769 25.6021 123.578 25.4013 123.345 25.2616C123.112 25.122 122.845 25.0488 122.574 25.0501L113.038 25.1284C112.608 25.1321 112.183 25.0336 111.799 24.8411C111.414 24.6485 111.081 24.3675 110.826 24.021C110.571 23.6745 110.402 23.2724 110.333 22.8479C110.264 22.4234 110.297 21.9886 110.428 21.5792L116.51 2.66013C117.029 1.01933 114.813 -0.0558686 113.852 1.37325Z" fill="#00FFB2"/>
<path d="M136.042 125.897C135.505 126.38 134.877 126.751 134.196 126.991C133.515 127.231 132.794 127.333 132.073 127.294C131.352 127.254 130.646 127.072 129.995 126.759C129.345 126.446 128.762 126.008 128.281 125.469L118.201 114.229C118.1 114.116 117.966 114.036 117.818 114C117.67 113.964 117.515 113.974 117.373 114.028C117.231 114.083 117.108 114.179 117.022 114.304C116.936 114.43 116.89 114.578 116.89 114.731V114.731C116.89 115.607 116.787 116.48 116.583 117.332C115.696 121.018 115.789 124.872 116.975 128.473L123.324 147.737C123.642 148.699 123.752 149.718 123.646 150.726C123.645 150.741 123.645 150.756 123.646 150.771L122.331 188.291C122.277 189.836 121.612 191.296 120.482 192.35C119.352 193.404 117.849 193.967 116.305 193.913C114.76 193.859 113.3 193.194 112.246 192.064C111.191 190.934 110.629 189.431 110.683 187.887L111.824 155.162C111.931 152.123 111.498 149.09 110.547 146.202L108.315 139.424C108.056 138.64 106.908 138.785 106.851 139.607L106.142 149.827C106.066 150.912 105.745 151.966 105.203 152.908C104.502 154.142 103.865 155.411 103.293 156.709L89.8171 186.667C89.1828 188.076 88.0148 189.175 86.57 189.723C85.1252 190.271 83.5221 190.222 82.1132 189.588C80.7043 188.953 79.6052 187.785 79.0575 186.34C78.5098 184.896 78.5585 183.293 79.1928 181.884L93.5478 149.964C94.2517 148.398 94.673 146.72 94.7922 145.008L96.032 127.225C96.256 123.994 95.9984 120.738 95.1562 117.611C94.9038 116.672 94.7765 115.703 94.7776 114.731V94.7129C94.7777 94.554 94.7273 94.3992 94.6339 94.2707C94.5404 94.1422 94.4086 94.0466 94.2574 93.9977C94.1062 93.9488 93.9434 93.9491 93.7923 93.9985C93.6413 94.0479 93.5098 94.144 93.4168 94.2728L91.5206 96.8925C90.7289 97.9873 90.1823 99.2399 89.9179 100.565L85.0179 125.179C84.7301 126.606 83.8881 127.861 82.6765 128.668C81.4649 129.475 79.9826 129.769 78.5548 129.485C77.127 129.2 75.8703 128.361 75.0601 127.152C74.25 125.942 73.9527 124.461 74.2334 123.032L79.7282 95.4443C79.8165 94.9924 79.9629 94.5538 80.1638 94.1395L80.3061 93.8337C80.4602 93.4864 80.6501 93.1561 80.8728 92.8482L95.7688 72.2749C95.7954 72.2374 95.8186 72.1977 95.8382 72.1562C96.9083 69.8831 98.7206 68.0424 100.977 66.9372C103.233 65.8319 105.798 65.5282 108.25 66.076C110.702 66.6237 112.894 67.9903 114.465 69.9506C116.037 71.9108 116.893 74.3479 116.894 76.8602V95.1016C116.894 95.8671 117.178 96.6055 117.689 97.1747L117.697 97.1825L136.471 118.127C136.954 118.665 137.325 119.293 137.565 119.975C137.805 120.656 137.908 121.379 137.868 122.101C137.828 122.823 137.646 123.529 137.333 124.181C137.02 124.832 136.581 125.415 136.042 125.897V125.897Z" fill="#141414"/>
</svg>
