<svg width="20" height="25" viewBox="0 0 20 25" fill="none" xmlns="http://www.w3.org/2000/svg">
<path d="M17.5 13.975V10C17.4982 8.2289 16.8697 6.51559 15.7258 5.16347C14.5818 3.81135 12.9963 2.90768 11.25 2.6125V1.25C11.25 0.918479 11.1183 0.600537 10.8839 0.366116C10.6495 0.131696 10.3315 0 10 0C9.66848 0 9.35054 0.131696 9.11612 0.366116C8.8817 0.600537 8.75 0.918479 8.75 1.25V2.6125C7.00367 2.90768 5.41816 3.81135 4.27423 5.16347C3.13031 6.51559 2.50179 8.2289 2.5 10V13.975C1.77056 14.2329 1.13875 14.7101 0.691173 15.3412C0.243598 15.9722 0.00217439 16.7263 0 17.5V20C0 20.3315 0.131696 20.6495 0.366117 20.8839C0.600537 21.1183 0.918479 21.25 1.25 21.25H5.175C5.46285 22.3092 6.09125 23.2443 6.96325 23.9109C7.83524 24.5776 8.90237 24.9388 10 24.9388C11.0976 24.9388 12.1648 24.5776 13.0368 23.9109C13.9087 23.2443 14.5371 22.3092 14.825 21.25H18.75C19.0815 21.25 19.3995 21.1183 19.6339 20.8839C19.8683 20.6495 20 20.3315 20 20V17.5C19.9978 16.7263 19.7564 15.9722 19.3088 15.3412C18.8613 14.7101 18.2294 14.2329 17.5 13.975ZM5 10C5 8.67392 5.52678 7.40215 6.46447 6.46447C7.40215 5.52678 8.67392 5 10 5C11.3261 5 12.5979 5.52678 13.5355 6.46447C14.4732 7.40215 15 8.67392 15 10V13.75H5V10ZM10 22.5C9.56372 22.4974 9.13572 22.3806 8.75854 22.1613C8.38136 21.942 8.06814 21.6278 7.85 21.25H12.15C11.9319 21.6278 11.6186 21.942 11.2415 22.1613C10.8643 22.3806 10.4363 22.4974 10 22.5ZM17.5 18.75H2.5V17.5C2.5 17.1685 2.6317 16.8505 2.86612 16.6161C3.10054 16.3817 3.41848 16.25 3.75 16.25H16.25C16.5815 16.25 16.8995 16.3817 17.1339 16.6161C17.3683 16.8505 17.5 17.1685 17.5 17.5V18.75Z" fill="black"/>
</svg>
