<svg width="75" height="75" viewBox="0 0 75 75" fill="none" xmlns="http://www.w3.org/2000/svg">
<path d="M37.5 0C45.0172 8.96413e-08 52.3608 2.25921 58.5781 6.48448L53.3086 14.2384C48.6456 11.0694 43.1379 9.375 37.5 9.375V0Z" fill="#00FF00"/>
<path d="M59.5456 7.16453C65.6266 11.5837 70.2391 17.7285 72.7846 24.8016L63.9634 27.9762C62.0543 22.6714 58.5949 18.0628 54.0342 14.7484L59.5456 7.16453Z" fill="#00FF00"/>
<path d="M73.1096 25.7438C75.4662 32.882 75.6231 40.5637 73.56 47.7922L64.545 45.2191C66.0923 39.7978 65.9746 34.0365 64.2072 28.6828L73.1096 25.7438Z" fill="#00FF00"/>
<path d="M73.2321 48.8784C70.9512 56.0412 66.5703 62.3531 60.6577 66.9953L54.8683 59.6214C59.3027 56.1398 62.5884 51.4059 64.2991 46.0338L73.2321 48.8784Z" fill="#00FF00"/>
<path d="M59.7279 67.7022C53.6736 72.1579 46.42 74.6913 38.9081 74.9736L38.5561 65.6052C44.19 65.3935 49.6302 63.4934 54.1709 60.1516L59.7279 67.7022Z" fill="#00FF00"/>
<path d="M37.5 75C29.9828 75 22.6392 72.7408 16.4219 68.5155L21.6914 60.7616C26.3544 63.9306 31.8621 65.625 37.5 65.625V75Z" fill="#00FF00"/>
<path d="M15.6547 67.98C9.54473 63.601 4.89187 57.4867 2.29985 50.4306L11.0999 47.1979C13.0439 52.49 16.5335 57.0757 21.116 60.36L15.6547 67.98Z" fill="#00FF00"/>
<path d="M1.91349 49.3258C-0.457087 42.1923 -0.629028 34.5109 1.41998 27.2783L10.44 29.8338C8.90323 35.2581 9.03218 41.0192 10.8101 46.3694L1.91349 49.3258Z" fill="#00FF00"/>
<path d="M1.73966 26.2107C4.00268 19.0423 8.36787 12.7194 14.2688 8.06256L20.0766 15.4219C15.6509 18.9146 12.377 23.6567 10.6797 29.033L1.73966 26.2107Z" fill="#FF0000"/>
<path d="M15.2491 7.31478C21.3 2.85441 28.5517 0.315522 36.0633 0.0275303L36.4225 9.39565C30.7888 9.61164 25.35 11.5158 20.8118 14.8611L15.2491 7.31478Z" fill="#FF0000"/>
</svg>
