<svg width="21" height="21" viewBox="0 0 21 21" fill="none" xmlns="http://www.w3.org/2000/svg">
<path d="M20.8249 4.47473C20.733 4.10436 20.2696 3.97886 19.9997 4.24874L16.9498 7.29866L14.1656 6.83477L13.7017 4.05063L16.7517 1.00072C17.0232 0.729196 16.8923 0.26654 16.5195 0.173845C14.5762 -0.307677 12.4364 0.211169 10.9176 1.72956C9.29176 3.35542 8.84428 5.71217 9.52103 7.76705L0.768733 16.5194C-0.256244 17.5443 -0.256244 19.2063 0.768733 20.2313C1.79371 21.2562 3.45566 21.2562 4.48064 20.2313L13.2256 11.4863C15.2813 12.1717 17.6335 11.7193 19.27 10.0828C20.7905 8.56234 21.3085 6.41928 20.8249 4.47473ZM2.6251 19.3593C2.08164 19.3593 1.64072 18.9184 1.64072 18.3749C1.64072 17.831 2.08164 17.3905 2.6251 17.3905C3.16855 17.3905 3.60947 17.831 3.60947 18.3749C3.60947 18.9184 3.16855 19.3593 2.6251 19.3593Z" fill="#00FFB2"/>
</svg>
