<svg width="20" height="20" viewBox="0 0 20 20" fill="none" xmlns="http://www.w3.org/2000/svg">
<path d="M6.24997 4.99997C6.00275 4.99997 5.76107 5.07328 5.55551 5.21064C5.34995 5.34799 5.18973 5.54321 5.09512 5.77162C5.00051 6.00003 4.97576 6.25136 5.02399 6.49384C5.07222 6.73631 5.19127 6.95904 5.36609 7.13386C5.54091 7.30867 5.76363 7.42772 6.00611 7.47596C6.24859 7.52419 6.49992 7.49943 6.72833 7.40482C6.95674 7.31021 7.15196 7.15 7.28931 6.94444C7.42666 6.73887 7.49997 6.4972 7.49997 6.24997C7.49997 5.91845 7.36828 5.60051 7.13386 5.36609C6.89944 5.13167 6.58149 4.99997 6.24997 4.99997V4.99997ZM17.6 8.92497L10.5916 1.90831C10.5138 1.83107 10.4214 1.76997 10.3199 1.7285C10.2184 1.68703 10.1096 1.66601 9.99997 1.66664H2.49997C2.27896 1.66664 2.067 1.75444 1.91072 1.91072C1.75444 2.067 1.66664 2.27896 1.66664 2.49997V9.99997C1.66601 10.1096 1.68703 10.2184 1.7285 10.3199C1.76997 10.4214 1.83107 10.5138 1.90831 10.5916L8.92497 17.6C9.39373 18.0681 10.0291 18.3311 10.6916 18.3311C11.3541 18.3311 11.9896 18.0681 12.4583 17.6L17.6 12.5C18.0681 12.0312 18.3311 11.3958 18.3311 10.7333C18.3311 10.0708 18.0681 9.43539 17.6 8.96664V8.92497ZM16.425 11.275L11.275 16.4166C11.1188 16.5719 10.9076 16.659 10.6875 16.659C10.4673 16.659 10.2561 16.5719 10.1 16.4166L3.33331 9.65831V3.33331H9.65831L16.425 10.1C16.5022 10.1778 16.5633 10.2702 16.6048 10.3717C16.6463 10.4732 16.6673 10.582 16.6666 10.6916C16.6657 10.9103 16.5789 11.1198 16.425 11.275V11.275Z" fill="black"/>
</svg>
